<svg width="24" height="25" viewBox="0 0 24 25" fill="none" xmlns="http://www.w3.org/2000/svg">
<path d="M12.6318 2.5V2V2.5ZM13.4629 2.57031L13.6469 2.10541L13.6467 2.10533L13.4629 2.57031ZM13.9834 3.04199L14.4278 2.81292L14.4278 2.81287L13.9834 3.04199ZM14.1357 3.86133L14.6333 3.81165L14.1357 3.86133ZM14.4307 5.31836L14.0331 5.62154L14.0332 5.62167L14.4307 5.31836ZM15.3594 5.70312L15.426 6.19866L15.4262 6.19864L15.3594 5.70312ZM16.5977 4.88086L16.2811 4.49385L16.5977 4.88086ZM17.2861 4.40918L17.1342 3.93283L17.1341 3.93285L17.2861 4.40918ZM17.9873 4.44434L18.1861 3.98554L18.186 3.98551L17.9873 4.44434ZM18.625 4.98242L18.2714 5.33598L18.625 4.98242ZM19.5176 5.875L19.8711 5.52145L19.5176 5.875ZM20.0557 6.5127L20.5145 6.31409L20.5145 6.31392L20.0557 6.5127ZM20.0908 7.21387L20.5671 7.36612L20.5671 7.3659L20.0908 7.21387ZM19.6182 7.90137L20.0051 8.21807L19.6182 7.90137ZM18.7969 9.13965L18.3014 9.07247L18.3014 9.07288L18.7969 9.13965ZM19.1816 10.0684L18.8783 10.4659L18.8784 10.4659L19.1816 10.0684ZM20.6387 10.3633L20.6885 9.86577L20.6387 10.3633ZM21.459 10.5166L21.6885 10.0724L21.6883 10.0723L21.459 10.5166ZM21.9297 11.0371L22.3946 10.8532L22.3946 10.8532L21.9297 11.0371ZM22 11.8682H22.5H22ZM22 13.1318H22.5H22ZM21.9297 13.9629L22.3946 14.1469L22.3947 14.1467L21.9297 13.9629ZM21.458 14.4834L21.6871 14.9278L21.6871 14.9278L21.458 14.4834ZM20.6387 14.6357L20.6884 15.1333L20.6387 14.6357ZM19.1826 14.9307L18.8795 14.533L18.8795 14.533L19.1826 14.9307ZM18.7979 15.8594L18.3023 15.9262L18.3023 15.9262L18.7979 15.8594ZM19.6191 17.0977L20.0061 16.781L19.6191 17.0977ZM20.0908 17.7842L20.5671 17.6319L20.567 17.6317L20.0908 17.7842ZM20.0557 18.4863L20.5144 18.6852L20.5145 18.685L20.0557 18.4863ZM17.9873 20.5547L18.186 21.0135L18.1861 21.0135L17.9873 20.5547ZM17.2861 20.5898L17.1341 21.0662L17.1342 21.0662L17.2861 20.5898ZM16.5977 20.1182L16.9142 19.7312L16.5977 20.1182ZM15.3584 19.2959L15.4249 18.8003L15.4246 18.8003L15.3584 19.2959ZM14.4307 19.6807L14.0332 19.3774L14.0332 19.3774L14.4307 19.6807ZM14.1357 21.1377L13.6382 21.088L14.1357 21.1377ZM13.9834 21.958L14.4278 22.1872L14.4279 22.187L13.9834 21.958ZM13.4629 22.4297L13.6468 22.8946L13.6469 22.8946L13.4629 22.4297ZM11.3682 22.5V23V22.5ZM10.5371 22.4297L10.3532 22.8946L10.3532 22.8946L10.5371 22.4297ZM10.0166 21.959L9.57228 22.1883L9.57239 22.1885L10.0166 21.959ZM9.86328 21.1387L9.36577 21.1885L9.86328 21.1387ZM9.56836 19.6816L9.96594 19.3784L9.96587 19.3783L9.56836 19.6816ZM8.63965 19.2969L8.57288 18.8014L8.57247 18.8014L8.63965 19.2969ZM7.40137 20.1182L7.71807 20.5051L7.40137 20.1182ZM6.71387 20.5908L6.8659 21.0671L6.86612 21.0671L6.71387 20.5908ZM6.0127 20.5557L5.81392 21.0145L5.81409 21.0145L6.0127 20.5557ZM4.48242 19.125L4.12887 19.4786L4.48242 19.125ZM3.94434 18.4873L3.48551 18.686L3.48554 18.6861L3.94434 18.4873ZM3.90918 17.7861L3.43285 17.6341L3.43283 17.6342L3.90918 17.7861ZM4.38086 17.0977L3.99385 16.7811L4.38086 17.0977ZM5.20312 15.8594L5.69864 15.9262L5.69866 15.926L5.20312 15.8594ZM4.81836 14.9307L5.12167 14.5332L5.12154 14.5331L4.81836 14.9307ZM3.36133 14.6357L3.31165 15.1333L3.36133 14.6357ZM2.54199 14.4834L2.31287 14.9278L2.31292 14.9278L2.54199 14.4834ZM2.07031 13.9629L1.60533 14.1467L1.60541 14.1469L2.07031 13.9629ZM2 13.1318H1.5H2ZM2 11.8682H1.5H2ZM2.07031 11.0371L1.60537 10.8532L1.60536 10.8532L2.07031 11.0371ZM2.54102 10.5166L2.31173 10.0723L2.31149 10.0724L2.54102 10.5166ZM3.36133 10.3633L3.31153 9.86577L3.36133 10.3633ZM4.81836 10.0684L5.12169 10.4658L5.12177 10.4658L4.81836 10.0684ZM5.20312 9.14062L5.69869 9.07415L5.69866 9.07398L5.20312 9.14062ZM4.38086 7.90137L3.9939 8.21801L4.38086 7.90137ZM3.90918 7.21387L3.43284 7.36586L3.43289 7.36601L3.90918 7.21387ZM3.94434 6.5127L3.48554 6.31394L3.4855 6.31402L3.94434 6.5127ZM6.0127 4.44434L5.81395 3.98553L5.81394 3.98554L6.0127 4.44434ZM6.71387 4.40918L6.86591 3.93286L6.86583 3.93283L6.71387 4.40918ZM7.40234 4.88086L7.08578 5.26788L7.40234 4.88086ZM8.64062 5.70215L8.57405 6.1977L8.57412 6.19771L8.64062 5.70215ZM9.56836 5.31738L9.96584 5.62071L9.96591 5.62062L9.56836 5.31738ZM9.86328 3.86133L10.3608 3.91114L9.86328 3.86133ZM10.0166 3.04102L9.5724 2.81149L9.57226 2.81175L10.0166 3.04102ZM10.5371 2.57031L10.3533 2.10534L10.3532 2.10537L10.5371 2.57031ZM12.6318 2.5V3C12.8562 3 13.0002 3.00033 13.1108 3.00777C13.2164 3.01487 13.2579 3.02693 13.2791 3.03529L13.4629 2.57031L13.6467 2.10533C13.4907 2.04366 13.3346 2.02056 13.1779 2.01002C13.0261 1.99981 12.8432 2 12.6318 2V2.5ZM13.4629 2.57031L13.2789 3.03522C13.3909 3.07958 13.4834 3.16326 13.539 3.27112L13.9834 3.04199L14.4278 2.81287C14.2617 2.49073 13.9846 2.2391 13.6469 2.10541L13.4629 2.57031ZM13.9834 3.04199L13.539 3.27107C13.5494 3.29127 13.5655 3.33126 13.583 3.43549C13.6013 3.54465 13.6159 3.68779 13.6382 3.91101L14.1357 3.86133L14.6333 3.81165C14.6123 3.60143 14.5943 3.41955 14.5691 3.26971C14.5431 3.11495 14.5047 2.96199 14.4278 2.81292L13.9834 3.04199ZM14.1357 3.86133L13.6382 3.91101C13.6784 4.31309 13.7111 4.64429 13.7574 4.90175C13.8029 5.15434 13.8727 5.41118 14.0331 5.62154L14.4307 5.31836L14.8283 5.01518C14.8169 5.00034 14.7802 4.93907 14.7416 4.72464C14.7039 4.51509 14.6751 4.23037 14.6333 3.81165L14.1357 3.86133ZM14.4307 5.31836L14.0332 5.62167C14.3599 6.04993 14.8918 6.2705 15.426 6.19866L15.3594 5.70312L15.2927 5.20759C15.1148 5.23151 14.9372 5.15794 14.8282 5.01505L14.4307 5.31836ZM15.3594 5.70312L15.4262 6.19864C15.6887 6.16324 15.9196 6.0305 16.13 5.88402C16.3444 5.73472 16.6017 5.52356 16.9142 5.26787L16.5977 4.88086L16.2811 4.49385C15.9551 4.76053 15.7335 4.94158 15.5586 5.06335C15.3796 5.18796 15.3107 5.20516 15.2925 5.20761L15.3594 5.70312ZM16.5977 4.88086L16.9142 5.26787C17.2861 4.96368 17.3696 4.90738 17.4381 4.88551L17.2861 4.40918L17.1341 3.93285C16.8395 4.02688 16.5845 4.24567 16.2811 4.49385L16.5977 4.88086ZM17.2861 4.40918L17.4381 4.88553C17.5531 4.84884 17.6775 4.85505 17.7886 4.90316L17.9873 4.44434L18.186 3.98551C17.8534 3.84147 17.4798 3.82256 17.1342 3.93283L17.2861 4.40918ZM17.9873 4.44434L17.7886 4.90314C17.8095 4.91222 17.8474 4.93307 17.9272 5.00272C18.0106 5.07562 18.1127 5.17728 18.2714 5.33598L18.625 4.98242L18.9786 4.62887C18.829 4.47927 18.6997 4.34976 18.5851 4.24964C18.4668 4.14626 18.34 4.05222 18.1861 3.98554L17.9873 4.44434ZM18.625 4.98242L18.2714 5.33598L19.164 6.22855L19.5176 5.875L19.8711 5.52145L18.9786 4.62887L18.625 4.98242ZM19.5176 5.875L19.164 6.22855C19.3227 6.3872 19.4243 6.48937 19.4973 6.57283C19.5669 6.6526 19.5878 6.69054 19.5969 6.71147L20.0557 6.5127L20.5145 6.31392C20.4478 6.16002 20.3537 6.03323 20.2503 5.91491C20.1502 5.80029 20.0207 5.67103 19.8711 5.52145L19.5176 5.875ZM20.0557 6.5127L19.5968 6.7113C19.645 6.82255 19.6511 6.94702 19.6145 7.06184L20.0908 7.21387L20.5671 7.3659C20.6775 7.02012 20.6584 6.64655 20.5145 6.31409L20.0557 6.5127ZM20.0908 7.21387L19.6146 7.06162C19.6078 7.08283 19.591 7.1223 19.5293 7.2087C19.4648 7.29912 19.3736 7.41074 19.2313 7.58466L19.6182 7.90137L20.0051 8.21807C20.1388 8.05473 20.255 7.91334 20.3432 7.78969C20.4344 7.66202 20.5158 7.52638 20.5671 7.36612L20.0908 7.21387ZM19.6182 7.90137L19.2313 7.58466C18.9753 7.89732 18.7645 8.15454 18.6153 8.36931C18.4688 8.58009 18.3369 8.81073 18.3014 9.07247L18.7969 9.13965L19.2923 9.20682C19.2949 9.18797 19.3124 9.11852 19.4366 8.93983C19.5579 8.76513 19.7387 8.54351 20.0051 8.21807L19.6182 7.90137ZM18.7969 9.13965L18.3014 9.07288C18.2293 9.6073 18.45 10.1391 18.8783 10.4659L19.1816 10.0684L19.4849 9.67085C19.3419 9.56172 19.2684 9.38422 19.2924 9.20642L18.7969 9.13965ZM19.1816 10.0684L18.8784 10.4659C19.0888 10.6264 19.3457 10.6961 19.5982 10.7415C19.8556 10.7878 20.1868 10.8206 20.5889 10.8608L20.6387 10.3633L20.6885 9.86577C20.2695 9.82384 19.9848 9.795 19.7752 9.75731C19.5608 9.71874 19.4996 9.68207 19.4848 9.67078L19.1816 10.0684ZM20.6387 10.3633L20.5889 10.8608C21.0665 10.9086 21.1658 10.9279 21.2297 10.9609L21.459 10.5166L21.6883 10.0723C21.4135 9.93048 21.0783 9.90478 20.6885 9.86577L20.6387 10.3633ZM21.459 10.5166L21.2295 10.9608C21.3367 11.0162 21.4203 11.1086 21.4648 11.2211L21.9297 11.0371L22.3946 10.8532C22.2613 10.5162 22.0106 10.2388 21.6885 10.0724L21.459 10.5166ZM21.9297 11.0371L21.4647 11.221C21.4731 11.2422 21.4852 11.2836 21.4923 11.3892C21.4997 11.4997 21.5 11.6437 21.5 11.8682H22H22.5C22.5 11.6567 22.5002 11.4738 22.49 11.3221C22.4795 11.1654 22.4564 11.0092 22.3946 10.8532L21.9297 11.0371ZM22 11.8682H21.5V13.1318H22H22.5V11.8682H22ZM22 13.1318H21.5C21.5 13.3561 21.4997 13.5002 21.4922 13.6107C21.4851 13.7164 21.473 13.758 21.4647 13.7791L21.9297 13.9629L22.3947 14.1467C22.4563 13.9907 22.4794 13.8346 22.49 13.6779C22.5002 13.5261 22.5 13.3432 22.5 13.1318H22ZM21.9297 13.9629L21.4648 13.7789C21.4204 13.891 21.3368 13.9834 21.2289 14.039L21.458 14.4834L21.6871 14.9278C22.0093 14.7617 22.2609 14.4846 22.3946 14.1469L21.9297 13.9629ZM21.458 14.4834L21.2289 14.039C21.2087 14.0494 21.1688 14.0654 21.0645 14.083C20.9554 14.1013 20.8122 14.1159 20.589 14.1382L20.6387 14.6357L20.6884 15.1333C20.8986 15.1123 21.0805 15.0943 21.2303 15.0691C21.3851 15.0431 21.538 15.0047 21.6871 14.9278L21.458 14.4834ZM20.6387 14.6357L20.589 14.1382C20.187 14.1784 19.856 14.2111 19.5987 14.2575C19.3462 14.303 19.0897 14.3728 18.8795 14.533L19.1826 14.9307L19.4857 15.3283C19.5007 15.3169 19.562 15.2802 19.776 15.2416C19.9853 15.2039 20.2698 15.1751 20.6884 15.1333L20.6387 14.6357ZM19.1826 14.9307L18.8795 14.533C18.4507 14.8599 18.2303 15.3917 18.3023 15.9262L18.7979 15.8594L19.2934 15.7926C19.2694 15.6145 19.3428 15.4373 19.4857 15.3283L19.1826 14.9307ZM18.7979 15.8594L18.3023 15.9262C18.3377 16.1882 18.4698 16.419 18.6162 16.6297C18.7654 16.8444 18.9763 17.1016 19.2322 17.4143L19.6191 17.0977L20.0061 16.781C19.7397 16.4554 19.5588 16.2338 19.4374 16.059C19.3132 15.8803 19.2959 15.8111 19.2934 15.7926L18.7979 15.8594ZM19.6191 17.0977L19.2322 17.4143C19.3742 17.5879 19.4651 17.6993 19.5295 17.7896C19.5909 17.8757 19.6078 17.9153 19.6147 17.9367L20.0908 17.7842L20.567 17.6317C20.5158 17.4719 20.4346 17.3365 20.3437 17.209C20.2556 17.0854 20.1397 16.9442 20.0061 16.781L19.6191 17.0977ZM20.0908 17.7842L19.6146 17.9364C19.6513 18.0512 19.6451 18.1762 19.5968 18.2877L20.0557 18.4863L20.5145 18.685C20.6585 18.3524 20.6777 17.978 20.5671 17.6319L20.0908 17.7842ZM20.0557 18.4863L19.5969 18.2875C19.5878 18.3084 19.5669 18.3464 19.4972 18.4262C19.4243 18.5097 19.3226 18.6119 19.164 18.7705L19.5176 19.124L19.8711 19.4776C20.0207 19.328 20.1501 19.1988 20.2503 19.0841C20.3536 18.9658 20.4477 18.839 20.5144 18.6852L20.0557 18.4863ZM19.5176 19.124L19.164 18.7705L18.2714 19.663L18.625 20.0166L18.9786 20.3702L19.8711 19.4776L19.5176 19.124ZM18.625 20.0166L18.2714 19.663C18.1127 19.8217 18.0106 19.9234 17.9272 19.9963C17.8474 20.066 17.8095 20.0868 17.7886 20.0959L17.9873 20.5547L18.1861 21.0135C18.34 20.9468 18.4668 20.8528 18.5851 20.7494C18.6997 20.6493 18.829 20.5198 18.9786 20.3702L18.625 20.0166ZM17.9873 20.5547L17.7886 20.0959C17.6775 20.144 17.5531 20.1502 17.4381 20.1135L17.2861 20.5898L17.1342 21.0662C17.4798 21.1765 17.8534 21.1576 18.186 21.0135L17.9873 20.5547ZM17.2861 20.5898L17.4381 20.1135C17.3696 20.0916 17.286 20.0353 16.9142 19.7312L16.5977 20.1182L16.2811 20.5052C16.5844 20.7533 16.8395 20.9721 17.1341 21.0662L17.2861 20.5898ZM16.5977 20.1182L16.9142 19.7312C16.6015 19.4753 16.344 19.2641 16.1293 19.1147C15.9186 18.9682 15.6875 18.8356 15.4249 18.8003L15.3584 19.2959L15.2919 19.7915C15.3102 19.7939 15.3792 19.8111 15.5583 19.9357C15.7333 20.0574 15.955 20.2385 16.2811 20.5052L16.5977 20.1182ZM15.3584 19.2959L15.4246 18.8003C14.8909 18.729 14.3597 18.9494 14.0332 19.3774L14.4307 19.6807L14.8282 19.984C14.9371 19.8412 15.1144 19.7677 15.2922 19.7915L15.3584 19.2959ZM14.4307 19.6807L14.0332 19.3774C13.8726 19.5878 13.8028 19.8446 13.7574 20.0972C13.7111 20.3546 13.6784 20.6859 13.6382 21.088L14.1357 21.1377L14.6333 21.1874C14.6751 20.7685 14.7039 20.4838 14.7416 20.2743C14.7801 20.06 14.8168 19.9988 14.8282 19.984L14.4307 19.6807ZM14.1357 21.1377L13.6382 21.088C13.6159 21.3114 13.6013 21.4548 13.583 21.5642C13.5654 21.6688 13.5493 21.7088 13.5389 21.729L13.9834 21.958L14.4279 22.187C14.5048 22.0378 14.5432 21.8846 14.5692 21.7297C14.5943 21.5798 14.6123 21.3977 14.6333 21.1874L14.1357 21.1377ZM13.9834 21.958L13.539 21.7288C13.4834 21.8367 13.3908 21.9205 13.2789 21.9648L13.4629 22.4297L13.6469 22.8946C13.9846 22.7609 14.2617 22.5091 14.4278 22.1872L13.9834 21.958ZM13.4629 22.4297L13.2789 21.9648C13.2579 21.9731 13.2164 21.9852 13.1105 21.9923C12.9997 21.9997 12.8554 22 12.6309 22V22.5V23C12.8424 23 13.0255 23.0002 13.1774 22.99C13.3342 22.9795 13.4906 22.9564 13.6468 22.8946L13.4629 22.4297ZM12.6309 22.5V22H11.3682V22.5V23H12.6309V22.5ZM11.3682 22.5V22C11.1437 22 10.9997 21.9997 10.8892 21.9923C10.7836 21.9852 10.7422 21.9731 10.721 21.9647L10.5371 22.4297L10.3532 22.8946C10.5092 22.9564 10.6654 22.9795 10.8221 22.99C10.9738 23.0002 11.1567 23 11.3682 23V22.5ZM10.5371 22.4297L10.7211 21.9648C10.6086 21.9203 10.5162 21.8367 10.4608 21.7295L10.0166 21.959L9.57239 22.1885C9.73883 22.5106 10.0162 22.7613 10.3532 22.8946L10.5371 22.4297ZM10.0166 21.959L10.4609 21.7297C10.4279 21.6658 10.4086 21.5665 10.3608 21.0889L9.86328 21.1387L9.36577 21.1885C9.40478 21.5783 9.43048 21.9135 9.57228 22.1883L10.0166 21.959ZM9.86328 21.1387L10.3608 21.0889C10.3206 20.6868 10.2878 20.3556 10.2415 20.0982C10.1961 19.8457 10.1264 19.5888 9.96594 19.3784L9.56836 19.6816L9.17078 19.9848C9.18207 19.9996 9.21874 20.0608 9.25731 20.2752C9.295 20.4848 9.32384 20.7695 9.36577 21.1885L9.86328 21.1387ZM9.56836 19.6816L9.96587 19.3783C9.63907 18.95 9.1073 18.7293 8.57288 18.8014L8.63965 19.2969L8.70642 19.7924C8.88422 19.7684 9.06172 19.8419 9.17085 19.9849L9.56836 19.6816ZM8.63965 19.2969L8.57247 18.8014C8.31073 18.8369 8.08009 18.9688 7.86931 19.1153C7.65454 19.2645 7.39732 19.4753 7.08466 19.7313L7.40137 20.1182L7.71807 20.5051C8.04351 20.2387 8.26513 20.0579 8.43983 19.9366C8.61852 19.8124 8.68797 19.7949 8.70682 19.7923L8.63965 19.2969ZM7.40137 20.1182L7.08466 19.7313C6.91074 19.8736 6.79912 19.9648 6.7087 20.0293C6.6223 20.091 6.58283 20.1078 6.56162 20.1146L6.71387 20.5908L6.86612 21.0671C7.02638 21.0158 7.16202 20.9344 7.28969 20.8432C7.41334 20.755 7.55473 20.6388 7.71807 20.5051L7.40137 20.1182ZM6.71387 20.5908L6.56184 20.1145C6.44702 20.1511 6.32255 20.145 6.2113 20.0968L6.0127 20.5557L5.81409 21.0145C6.14655 21.1584 6.52012 21.1775 6.8659 21.0671L6.71387 20.5908ZM6.0127 20.5557L6.21147 20.0969C6.19054 20.0878 6.1526 20.0669 6.07283 19.9973C5.98937 19.9243 5.8872 19.8227 5.72855 19.664L5.375 20.0176L5.02145 20.3711C5.17103 20.5207 5.30029 20.6502 5.41491 20.7503C5.53323 20.8537 5.66002 20.9478 5.81392 21.0145L6.0127 20.5557ZM5.375 20.0176L5.72855 19.664L4.83598 18.7714L4.48242 19.125L4.12887 19.4786L5.02145 20.3711L5.375 20.0176ZM4.48242 19.125L4.83598 18.7714C4.67728 18.6127 4.57562 18.5106 4.50272 18.4272C4.43307 18.3474 4.41222 18.3095 4.40314 18.2886L3.94434 18.4873L3.48554 18.6861C3.55222 18.84 3.64626 18.9668 3.74964 19.0851C3.84976 19.1997 3.97927 19.329 4.12887 19.4786L4.48242 19.125ZM3.94434 18.4873L4.40316 18.2886C4.35505 18.1775 4.34884 18.0531 4.38553 17.9381L3.90918 17.7861L3.43283 17.6342C3.32256 17.9798 3.34147 18.3534 3.48551 18.686L3.94434 18.4873ZM3.90918 17.7861L4.38551 17.9381C4.40738 17.8696 4.46368 17.7861 4.76787 17.4142L4.38086 17.0977L3.99385 16.7811C3.74567 17.0845 3.52688 17.3395 3.43285 17.6341L3.90918 17.7861ZM4.38086 17.0977L4.76787 17.4142C5.02356 17.1017 5.23472 16.8444 5.38402 16.63C5.5305 16.4196 5.66324 16.1887 5.69864 15.9262L5.20312 15.8594L4.70761 15.7925C4.70516 15.8107 4.68796 15.8796 4.56335 16.0586C4.44158 16.2335 4.26053 16.4551 3.99385 16.7811L4.38086 17.0977ZM5.20312 15.8594L5.69866 15.926C5.7705 15.3918 5.54993 14.8599 5.12167 14.5332L4.81836 14.9307L4.51505 15.3282C4.65794 15.4372 4.73151 15.6148 4.70759 15.7927L5.20312 15.8594ZM4.81836 14.9307L5.12154 14.5331C4.91118 14.3727 4.65434 14.3029 4.40175 14.2574C4.14429 14.2111 3.81309 14.1784 3.41101 14.1382L3.36133 14.6357L3.31165 15.1333C3.73037 15.1751 4.01509 15.2039 4.22464 15.2416C4.43907 15.2802 4.50034 15.3169 4.51518 15.3283L4.81836 14.9307ZM3.36133 14.6357L3.41101 14.1382C3.18779 14.1159 3.04465 14.1013 2.93549 14.083C2.83126 14.0655 2.79127 14.0494 2.77107 14.039L2.54199 14.4834L2.31292 14.9278C2.46199 15.0047 2.61495 15.0431 2.76971 15.0691C2.91955 15.0943 3.10143 15.1123 3.31165 15.1333L3.36133 14.6357ZM2.54199 14.4834L2.77112 14.039C2.66326 13.9834 2.57958 13.8909 2.53522 13.7789L2.07031 13.9629L1.60541 14.1469C1.7391 14.4846 1.99073 14.7617 2.31287 14.9278L2.54199 14.4834ZM2.07031 13.9629L2.53529 13.7791C2.52693 13.7579 2.51487 13.7164 2.50777 13.6108C2.50033 13.5002 2.5 13.3562 2.5 13.1318H2H1.5C1.5 13.3432 1.49981 13.5261 1.51002 13.6779C1.52056 13.8346 1.54366 13.9907 1.60533 14.1467L2.07031 13.9629ZM2 13.1318H2.5V11.8682H2H1.5V13.1318H2ZM2 11.8682H2.5C2.5 11.6437 2.50032 11.4997 2.50775 11.3892C2.51485 11.2836 2.5269 11.2422 2.53527 11.221L2.07031 11.0371L1.60536 10.8532C1.54364 11.0093 1.52054 11.1654 1.51 11.3221C1.4998 11.4738 1.5 11.6567 1.5 11.8682H2ZM2.07031 11.0371L2.53525 11.221C2.57974 11.1086 2.66329 11.0162 2.77054 10.9608L2.54102 10.5166L2.31149 10.0724C1.98938 10.2388 1.73868 10.5162 1.60537 10.8532L2.07031 11.0371ZM2.54102 10.5166L2.7703 10.9609C2.83421 10.928 2.93351 10.9086 3.41113 10.8608L3.36133 10.3633L3.31153 9.86577C2.92169 9.90479 2.58649 9.93049 2.31173 10.0723L2.54102 10.5166ZM3.36133 10.3633L3.41113 10.8608C3.81319 10.8206 4.14441 10.7878 4.40176 10.7416C4.65429 10.6962 4.91123 10.6265 5.12169 10.4658L4.81836 10.0684L4.51503 9.67088C4.5003 9.68212 4.43924 9.71879 4.22481 9.75734C4.01521 9.79502 3.73051 9.82383 3.31153 9.86577L3.36133 10.3633ZM4.81836 10.0684L5.12177 10.4658C5.54941 10.1393 5.77035 9.60838 5.69869 9.07415L5.20312 9.14062L4.70756 9.2071C4.73136 9.38451 4.65803 9.5617 4.51495 9.67094L4.81836 10.0684ZM5.20312 9.14062L5.69866 9.07398C5.66337 8.81155 5.53079 8.58041 5.38427 8.3697C5.23489 8.15489 5.02371 7.89745 4.76782 7.58473L4.38086 7.90137L3.9939 8.21801C4.2605 8.54383 4.44158 8.76564 4.56327 8.94063C4.68781 9.11973 4.70512 9.18895 4.70759 9.20727L5.20312 9.14062ZM4.38086 7.90137L4.76782 7.58473C4.62581 7.41118 4.53489 7.29954 4.47068 7.20932C4.40932 7.12312 4.39239 7.08338 4.38547 7.06172L3.90918 7.21387L3.43289 7.36601C3.48393 7.52579 3.56492 7.66126 3.65596 7.78918C3.74414 7.91307 3.86007 8.05446 3.9939 8.21801L4.38086 7.90137ZM3.90918 7.21387L4.38552 7.06187C4.34884 6.94693 4.35504 6.82252 4.40317 6.71137L3.94434 6.5127L3.4855 6.31402C3.34149 6.6466 3.32253 7.02015 3.43284 7.36586L3.90918 7.21387ZM3.94434 6.5127L4.40313 6.71145C4.4122 6.69052 4.43306 6.65259 4.50274 6.57283C4.57565 6.48938 4.67731 6.38721 4.83598 6.22855L4.48242 5.875L4.12887 5.52145C3.97928 5.67103 3.84978 5.80029 3.74965 5.91491C3.64628 6.03323 3.55222 6.16002 3.48554 6.31394L3.94434 6.5127ZM4.48242 5.875L4.83598 6.22855L5.72855 5.33598L5.375 4.98242L5.02145 4.62887L4.12887 5.52145L4.48242 5.875ZM5.375 4.98242L5.72855 5.33598C5.88722 5.1773 5.98938 5.07564 6.07283 5.00273C6.15258 4.93306 6.19051 4.91221 6.21145 4.90314L6.0127 4.44434L5.81394 3.98554C5.66002 4.05222 5.53323 4.14628 5.41491 4.24965C5.30029 4.34978 5.17103 4.47928 5.02145 4.62887L5.375 4.98242ZM6.0127 4.44434L6.21144 4.90314C6.32248 4.85504 6.44685 4.84882 6.56191 4.88553L6.71387 4.40918L6.86583 3.93283C6.52019 3.82257 6.14665 3.84142 5.81395 3.98553L6.0127 4.44434ZM6.71387 4.40918L6.56183 4.8855C6.63033 4.90737 6.71406 4.96383 7.08578 5.26788L7.40234 4.88086L7.71891 4.49384C7.41567 4.2458 7.1605 4.02689 6.86591 3.93286L6.71387 4.40918ZM7.40234 4.88086L7.08578 5.26788C7.3984 5.5236 7.65564 5.73456 7.87024 5.88374C8.08083 6.03014 8.31172 6.16245 8.57405 6.1977L8.64062 5.70215L8.7072 5.2066C8.68883 5.20413 8.61979 5.18691 8.44103 5.06264C8.26627 4.94116 8.04471 4.76033 7.71891 4.49384L7.40234 4.88086ZM8.64062 5.70215L8.57412 6.19771C9.10841 6.26941 9.63931 6.04861 9.96584 5.62071L9.56836 5.31738L9.17087 5.01406C9.06169 5.15713 8.88468 5.23042 8.70713 5.20659L8.64062 5.70215ZM9.56836 5.31738L9.96591 5.62062C10.1263 5.41028 10.1961 5.15368 10.2415 4.90123C10.2878 4.64403 10.3206 4.31305 10.3608 3.91114L9.86328 3.86133L9.36577 3.81152C9.32384 4.23027 9.29502 4.51471 9.25733 4.72408C9.21879 4.93819 9.18215 4.99928 9.17081 5.01415L9.56836 5.31738ZM9.86328 3.86133L10.3608 3.91114C10.4086 3.43355 10.428 3.33419 10.4609 3.27028L10.0166 3.04102L9.57226 2.81175C9.43051 3.08649 9.4048 3.42171 9.36577 3.81152L9.86328 3.86133ZM10.0166 3.04102L10.4608 3.27054C10.5162 3.16328 10.6086 3.07974 10.721 3.03525L10.5371 2.57031L10.3532 2.10537C10.0162 2.23868 9.73883 2.48938 9.5724 2.81149L10.0166 3.04102ZM10.5371 2.57031L10.721 3.03528C10.7421 3.02691 10.7836 3.01486 10.8892 3.00776C10.9997 3.00032 11.1437 3 11.3682 3V2.5V2C11.1567 2 10.9738 1.9998 10.8221 2.01001C10.6654 2.02055 10.5093 2.04365 10.3533 2.10534L10.5371 2.57031ZM11.3682 2.5V3H12.6318V2.5V2H11.3682V2.5ZM12 8.5V8C9.51472 8 7.5 10.0147 7.5 12.5H8H8.5C8.5 10.567 10.067 9 12 9V8.5ZM8 12.5H7.5C7.5 14.9853 9.51472 17 12 17V16.5V16C10.067 16 8.5 14.433 8.5 12.5H8ZM12 16.5V17C14.4853 17 16.5 14.9853 16.5 12.5H16H15.5C15.5 14.433 13.933 16 12 16V16.5ZM16 12.5H16.5C16.5 10.0147 14.4853 8 12 8V8.5V9C13.933 9 15.5 10.567 15.5 12.5H16Z" fill="white"/>
</svg>
