<svg width="20" height="21" viewBox="0 0 20 21" fill="none" xmlns="http://www.w3.org/2000/svg">
<path fill-rule="evenodd" clip-rule="evenodd" d="M6.99422 7.22409C6.99422 5.58838 8.34019 4.25824 9.99537 4.25824C11.6506 4.25824 12.9965 5.58838 12.9965 7.22409C12.9965 8.8598 11.6596 10.1809 10.0045 10.1899H9.98628C8.3311 10.1899 6.99422 8.8598 6.99422 7.22409ZM7.43075 10.6034C6.39399 9.83044 5.72101 8.60815 5.72101 7.22409C5.72101 4.88736 7.63083 3 9.99537 3C12.3599 3 14.2697 4.88736 14.2697 7.22409C14.2697 8.60815 13.5968 9.83942 12.56 10.6034C14.0151 11.1067 15.1519 12.0054 16.0068 13.0479C17.2891 14.6297 17.9166 16.562 17.9166 18H16.6434C16.6434 16.8586 16.125 15.2049 15.0155 13.8298C13.9241 12.4817 12.2781 11.4392 10.0136 11.4392C10.0136 11.4392 10.0136 11.4392 10.0045 11.4392C9.99537 11.4392 10.0045 11.4392 9.99537 11.4392C7.73087 11.4392 6.08478 12.4817 4.99346 13.8298C3.88394 15.2049 3.36556 16.8586 3.36556 18H2.08325C2.08325 16.553 2.71076 14.6207 3.99307 13.0479C4.83885 12.0054 5.98475 11.0977 7.43985 10.6034H7.43075Z" fill="#777777"/>
</svg>
