<svg width="24" height="25" viewBox="0 0 24 25" fill="none" xmlns="http://www.w3.org/2000/svg">
<path d="M3.5 10.4C3.5 9.55992 3.5 9.13988 3.66349 8.81901C3.8073 8.53677 4.03677 8.3073 4.31901 8.16349C4.63988 8 5.05992 8 5.9 8H8.31332C8.74409 8 8.95947 8 9.14963 8.06559C9.31778 8.12359 9.47094 8.21825 9.59801 8.34272C9.74171 8.48347 9.83803 8.67612 10.0307 9.06142L10.9693 10.939C11.162 11.3243 11.2583 11.5169 11.402 11.6577C11.5291 11.7821 11.6822 11.8768 11.8504 11.9348C12.0405 12.0004 12.2559 12.0004 12.6867 12.0004H18.1C18.9401 12.0004 19.3601 12.0004 19.681 12.1639C19.9632 12.3077 20.1927 12.5372 20.3365 12.8194C20.5 13.1403 20.5 13.5603 20.5 14.4004V18.6004C20.5 19.4405 20.5 19.8605 20.3365 20.1814C20.1927 20.4636 19.9632 20.6931 19.681 20.8369C19.3601 21.0004 18.9401 21.0004 18.1 21.0004H5.9C5.05992 21.0004 4.63988 21.0004 4.31901 20.8369C4.03677 20.6931 3.8073 20.4636 3.66349 20.1814C3.5 19.8605 3.5 19.4405 3.5 18.6004V10.4Z" stroke="white"/>
<path d="M17.5 11.5V7.66274C17.5 7.41815 17.5 7.29586 17.4724 7.18077C17.4479 7.07873 17.4075 6.98119 17.3526 6.89172C17.2908 6.7908 17.2043 6.70432 17.0314 6.53137L14.9686 4.46863C14.7957 4.29568 14.7092 4.2092 14.6083 4.14736C14.5188 4.09253 14.4213 4.05213 14.3192 4.02763C14.2041 4 14.0818 4 13.8373 4H8.9C8.05992 4 7.63988 4 7.31901 4.16349C7.03677 4.3073 6.8073 4.53677 6.66349 4.81901C6.5 5.13988 6.5 5.55992 6.5 6.4V8.5" stroke="white"/>
<path d="M13.5 4L13.5 6.4C13.5 6.96005 13.5 7.24008 13.609 7.45399C13.7049 7.64215 13.8578 7.79513 14.046 7.89101C14.2599 8 14.5399 8 15.1 8L17.5 8" stroke="white"/>
</svg>
