<svg width="24" height="24" viewBox="0 0 24 24" fill="none" xmlns="http://www.w3.org/2000/svg">
<path d="M10.8003 4.05005C14.5005 4.05015 17.5005 7.05 17.5005 10.7502C17.5004 12.3738 16.9223 13.8621 15.9614 15.0217L19.895 18.9553L18.9048 19.9456L14.9595 16.0002C13.8166 16.9069 12.3724 17.4504 10.8003 17.4504C7.10005 17.4504 4.1002 14.4505 4.1001 10.7502C4.1001 7.04994 7.09999 4.05005 10.8003 4.05005ZM10.8003 5.45044C7.87318 5.45044 5.50049 7.82313 5.50049 10.7502C5.50059 13.6773 7.87325 16.05 10.8003 16.05C13.7272 16.0499 16.1 13.6772 16.1001 10.7502C16.1001 7.8232 13.7273 5.45054 10.8003 5.45044Z" fill="#111111"/>
</svg>
